<?xml version="1.0" encoding="UTF-8"?>
<svg version="1.1" xmlns="http://www.w3.org/2000/svg" width="689" height="704">
<path d="M0 0 C0.99 0 1.98 0 3 0 C3 61.71 3 123.42 3 187 C-4.87431265 180.25058916 -4.87431265 180.25058916 -7.3515625 177.74609375 C-7.89296875 177.20146484 -8.434375 176.65683594 -8.9921875 176.09570312 C-9.53101563 175.54849609 -10.06984375 175.00128906 -10.625 174.4375 C-11.1715625 173.88642578 -11.718125 173.33535156 -12.28125 172.76757812 C-13.35249579 171.68736257 -14.4224471 170.60586142 -15.4909668 169.52294922 C-16.89994483 168.10097786 -18.32252737 166.69252273 -19.74609375 165.28515625 C-22 163 -22 163 -24.4375 160 C-26.34236446 157.76991478 -27.95183772 156.11947946 -30.1875 154.3125 C-33 152 -33 152 -35 149 C-35.99 149 -36.98 149 -38 149 C-39.93074406 151.23140954 -41.69337474 153.4426377 -43.4375 155.8125 C-48.91850529 163.18707797 -48.91850529 163.18707797 -53 166 C-53.433125 166.763125 -53.86625 167.52625 -54.3125 168.3125 C-56.26612239 171.42382455 -58.50092826 173.23835505 -61.37890625 175.47265625 C-63.19124759 177.18018749 -63.89750453 178.78642933 -65 181 C-66.59375 182.60546875 -66.59375 182.60546875 -68.5 184.1875 C-71.71616911 186.90842568 -74.87760401 189.67153327 -78 192.5 C-79.66641247 194.00028239 -81.33306939 195.50029332 -83 197 C-83.72703125 197.65613281 -84.4540625 198.31226563 -85.203125 198.98828125 C-88.97332582 202.34836481 -92.79204335 205.19469557 -97 208 C-97.825 208.825 -98.65 209.65 -99.5 210.5 C-102.14201781 213.14201781 -104.87725941 214.9606592 -108 217 C-109.010625 217.845625 -110.02125 218.69125 -111.0625 219.5625 C-113.63968311 221.70101365 -116.14269342 223.28561605 -119 225 C-119.969375 225.825 -120.93875 226.65 -121.9375 227.5 C-124.88801229 229.90858146 -127.59871022 231.33406215 -131 233 C-132.65271781 234.19903057 -134.304866 235.39889803 -135.94921875 236.609375 C-139.27962722 238.86770912 -142.82849554 240.70393851 -146.375 242.59765625 C-148.43892791 243.7002606 -150.47574778 244.82729619 -152.5 246 C-159.44795742 249.98925785 -166.39091609 253.8487314 -173.76171875 257.00390625 C-176.18406322 258.08191295 -178.52100298 259.28037005 -180.875 260.5 C-185.16792784 262.67641458 -189.51024927 264.36774429 -194.06640625 265.91015625 C-196.48560554 266.80890006 -198.77495151 267.79635597 -201.1171875 268.87109375 C-206.48007333 271.28102282 -211.98291009 273.15873533 -217.5625 275 C-218.62243164 275.35102783 -219.68236328 275.70205566 -220.77441406 276.0637207 C-228.44918955 278.57009109 -236.1076668 280.70681245 -243.97900391 282.51269531 C-246.18109802 283.04366654 -248.3599822 283.63755557 -250.54296875 284.2421875 C-265.86684502 288.41959663 -282.05455501 291.42731094 -298 291 C-295.70200465 288.70200465 -294.4877459 288.44063793 -291.37890625 287.66796875 C-290.44852539 287.42925049 -289.51814453 287.19053223 -288.55957031 286.94458008 C-287.57053711 286.69474365 -286.58150391 286.44490723 -285.5625 286.1875 C-278.48125837 284.33757396 -271.86398567 282.37933491 -265.30078125 279.08203125 C-262.87703121 277.94216918 -260.51788572 277.20950698 -257.9375 276.5 C-252.57381591 274.9807092 -247.92163504 272.58303262 -243 270 C-240.27638571 268.61388116 -237.54464409 267.24421028 -234.8125 265.875 C-234.14718262 265.53831299 -233.48186523 265.20162598 -232.79638672 264.85473633 C-229.65007647 263.27297832 -226.50344399 261.76497484 -223.25390625 260.40625 C-220.66608659 259.28786455 -218.46020196 258.17142263 -216.125 256.625 C-213.44595325 254.89510124 -210.75374878 253.30780658 -207.9375 251.8125 C-201.00340756 248.00954619 -194.52733555 243.45199587 -188 239 C-186.98292969 238.30777344 -185.96585937 237.61554688 -184.91796875 236.90234375 C-181.33953423 234.43463854 -178.0606442 232.08658186 -175 229 C-174.21625 228.54625 -173.4325 228.0925 -172.625 227.625 C-169.86281498 226.05368109 -169.86281498 226.05368109 -167.5 223.5 C-165 221 -165 221 -162.78125 219.7421875 C-159.10538864 217.43961142 -156.13827955 214.60234213 -153 211.625 C-152.39671875 211.06039062 -151.7934375 210.49578125 -151.171875 209.9140625 C-148.51131755 207.41545203 -145.89193957 204.89146769 -143.31640625 202.3046875 C-141.25958206 200.25826883 -139.15438399 198.36870539 -136.9375 196.5 C-133.90353182 193.88884471 -131.48004723 191.14775225 -129 188 C-128.34 188 -127.68 188 -127 188 C-126.77054688 187.46375 -126.54109375 186.9275 -126.3046875 186.375 C-124.60218502 183.2758338 -122.40301047 180.6831377 -120.125 178 C-119.69058594 177.47921875 -119.25617188 176.9584375 -118.80859375 176.421875 C-116.86752312 174.11357479 -114.8946364 171.89500352 -112.7578125 169.765625 C-110.95381327 167.953608 -110.00133091 166.3364388 -109 164 C-108.34 164 -107.68 164 -107 164 C-106.731875 163.443125 -106.46375 162.88625 -106.1875 162.3125 C-102.58181818 155.29090909 -102.58181818 155.29090909 -100 154 C-99.38125 152.7625 -99.38125 152.7625 -98.75 151.5 C-96.5524887 147.10497739 -94.07073649 142.84911259 -91 139 C-90.34 139 -89.68 139 -89 139 C-88.690625 137.865625 -88.38125 136.73125 -88.0625 135.5625 C-87 132 -87 132 -86 131 C-110.255 130.505 -110.255 130.505 -135 130 C-129.33464567 122.06850394 -129.33464567 122.06850394 -126.3125 119.5625 C-125.44044922 118.82193359 -125.44044922 118.82193359 -124.55078125 118.06640625 C-123 117 -123 117 -121 117 C-120.67 116.01 -120.34 115.02 -120 114 C-118.46875 112.4921875 -118.46875 112.4921875 -116.5 110.875 C-110.82653076 106.0673205 -105.68913742 100.75636586 -100.5 95.4375 C-97.43777812 92.45183367 -94.22422283 89.66260594 -90.98828125 86.8671875 C-88.81411592 84.96687677 -88.81411592 84.96687677 -87 82 C-86.236875 81.566875 -85.47375 81.13375 -84.6875 80.6875 C-81.98563518 78.99098023 -80.41707994 77.17413459 -78.45703125 74.69140625 C-75.0048475 70.68391144 -71.05450424 66.68483475 -66 65 C-65.32101676 63.67289639 -64.65595559 62.33863531 -64 61 C-62.1953125 59.25390625 -62.1953125 59.25390625 -60.125 57.5625 C-57.72941308 55.54607072 -55.82781391 53.78223524 -53.875 51.3125 C-51.59588363 48.5015898 -49.02099942 46.97289758 -46 45 C-44.30009712 43.35797912 -42.64537051 41.69535846 -41 40 C-38.27653671 37.22351227 -35.54523534 34.45485823 -32.8125 31.6875 C-32.08869141 30.94693359 -31.36488281 30.20636719 -30.61914062 29.44335938 C-29.92626953 28.74404297 -29.23339844 28.04472656 -28.51953125 27.32421875 C-27.89151611 26.68572998 -27.26350098 26.04724121 -26.61645508 25.3894043 C-25 24 -25 24 -23 24 C-22.79890625 23.46246094 -22.5978125 22.92492187 -22.390625 22.37109375 C-20.400883 18.97847185 -17.66177342 16.67137081 -14.75 14.0625 C-13.90888672 13.29389648 -13.90888672 13.29389648 -13.05078125 12.50976562 C-10.3249257 10.03257357 -7.56343098 7.62933412 -4.703125 5.30859375 C-1.87168502 3.10269925 -1.87168502 3.10269925 0 0 Z " fill="#BD282D" transform="translate(471,0)"/>
<path d="M0 0 C1.33607108 -0.00389466 2.67214093 -0.0082309 4.00820923 -0.01298523 C6.80043562 -0.02041874 9.59253552 -0.02017738 12.38476562 -0.01489258 C15.94082254 -0.00910509 19.49635739 -0.0260249 23.05232811 -0.04923725 C25.80979374 -0.06406 28.56713613 -0.06483473 31.32463455 -0.06172752 C33.26595611 -0.06248191 35.20725872 -0.07628497 37.14852905 -0.09040833 C47.16233774 -0.03834295 55.0274752 1.03919395 62.2890625 8.30078125 C62.2890625 8.96078125 62.2890625 9.62078125 62.2890625 10.30078125 C63.2790625 10.63078125 64.2690625 10.96078125 65.2890625 11.30078125 C69.14201441 19.89582782 69.44669826 28.02008042 69.45703125 37.31640625 C69.46202385 38.89382599 69.46202385 38.89382599 69.46711731 40.50311279 C69.47216435 42.72196009 69.47452632 44.94081493 69.47436523 47.15966797 C69.47654634 50.5258458 69.49471129 53.89169277 69.51367188 57.2578125 C69.51660747 59.42317597 69.51859115 61.58854099 69.51953125 63.75390625 C69.52671677 64.74698792 69.53390228 65.74006958 69.54130554 66.76324463 C69.48293839 84.92985425 69.48293839 84.92985425 64.046875 91.66796875 C57.26502147 97.96755714 50.54440718 101.40224087 41.36230469 101.46191406 C39.56959137 101.47632538 39.56959137 101.47632538 37.74066162 101.49102783 C36.45210266 101.49527771 35.1635437 101.49952759 33.8359375 101.50390625 C33.17660469 101.50673363 32.51727188 101.509561 31.83795929 101.51247406 C28.34688417 101.52744258 24.85585011 101.53668599 21.36474609 101.54101562 C17.77603105 101.54648824 14.18769772 101.57049684 10.59910202 101.59898758 C7.82453349 101.61770661 5.05005509 101.62282451 2.27542877 101.6243515 C0.31465752 101.62881247 -1.64606531 101.64741498 -3.60675049 101.6663208 C-10.36952516 101.64951621 -15.57022551 101.20711635 -21.7109375 98.30078125 C-21.7109375 97.64078125 -21.7109375 96.98078125 -21.7109375 96.30078125 C-22.54625 95.92953125 -22.54625 95.92953125 -23.3984375 95.55078125 C-29.59427528 92.20167975 -31.60097513 89.0249052 -33.87280273 82.48706055 C-35.31978824 76.98615525 -35.28110319 71.58462643 -35.2421875 65.92578125 C-35.2460144 64.68006348 -35.24984131 63.4343457 -35.25378418 62.15087891 C-35.2564911 59.53221828 -35.24921611 56.91353005 -35.23242188 54.29492188 C-35.2109972 50.31188031 -35.23226794 46.33064245 -35.2578125 42.34765625 C-35.25516901 39.79036065 -35.2500436 37.23306615 -35.2421875 34.67578125 C-35.25028442 33.49838379 -35.25838135 32.32098633 -35.26672363 31.10791016 C-35.17069462 22.54077211 -34.07709912 14.27589673 -28.37890625 7.546875 C-27.15107422 6.65162109 -27.15107422 6.65162109 -25.8984375 5.73828125 C-25.08761719 5.11824219 -24.27679688 4.49820312 -23.44140625 3.859375 C-15.96431791 -0.40866255 -8.40775166 -0.00603406 0 0 Z " fill="#1F295B" transform="translate(327.7109375,308.69921875)"/>
<path d="M0 0 C1.33607108 -0.00389466 2.67214093 -0.0082309 4.00820923 -0.01298523 C6.80043562 -0.02041874 9.59253552 -0.02017738 12.38476562 -0.01489258 C15.94082254 -0.00910509 19.49635739 -0.0260249 23.05232811 -0.04923725 C25.80979374 -0.06406 28.56713613 -0.06483473 31.32463455 -0.06172752 C33.26595611 -0.06248191 35.20725872 -0.07628497 37.14852905 -0.09040833 C47.16233774 -0.03834295 55.0274752 1.03919395 62.2890625 8.30078125 C62.2890625 8.96078125 62.2890625 9.62078125 62.2890625 10.30078125 C63.2790625 10.63078125 64.2690625 10.96078125 65.2890625 11.30078125 C69.13167359 19.87275984 69.45270224 28.00852926 69.4921875 37.28125 C69.49788757 38.33049149 69.50358765 39.37973297 69.50946045 40.46076965 C69.51887682 42.67541506 69.525431 44.89007427 69.52929688 47.10473633 C69.53898103 50.4600524 69.57002846 53.8147498 69.6015625 57.16992188 C69.60809596 59.33202765 69.61334509 61.49413777 69.6171875 63.65625 C69.6295343 64.64417038 69.6418811 65.63209076 69.65460205 66.64994812 C69.62632544 75.67175216 68.66606063 86.44550826 62.2890625 93.30078125 C55.74944669 98.02110545 50.56456085 101.40974238 42.3840332 101.46191406 C41.16879471 101.47152161 39.95355621 101.48112915 38.70149231 101.49102783 C37.38589828 101.49527771 36.07030426 101.49952759 34.71484375 101.50390625 C33.34824116 101.50966225 31.98163858 101.51541992 30.61503601 101.5211792 C27.74766668 101.5316828 24.88032531 101.53752891 22.01293945 101.54101562 C18.35581725 101.54648354 14.69907053 101.5704772 11.04206562 101.59898758 C8.21688292 101.61770646 5.39178875 101.62282455 2.5665493 101.6243515 C0.56811067 101.62881519 -1.4302804 101.64742092 -3.42863464 101.6663208 C-10.24829708 101.64969489 -15.52217983 101.2448013 -21.7109375 98.30078125 C-21.7109375 97.64078125 -21.7109375 96.98078125 -21.7109375 96.30078125 C-22.54625 95.92953125 -22.54625 95.92953125 -23.3984375 95.55078125 C-29.59427528 92.20167975 -31.60097513 89.0249052 -33.87280273 82.48706055 C-35.31978824 76.98615525 -35.28110319 71.58462643 -35.2421875 65.92578125 C-35.2460144 64.68006348 -35.24984131 63.4343457 -35.25378418 62.15087891 C-35.2564911 59.53221828 -35.24921611 56.91353005 -35.23242188 54.29492188 C-35.2109972 50.31188031 -35.23226794 46.33064245 -35.2578125 42.34765625 C-35.25516901 39.79036065 -35.2500436 37.23306615 -35.2421875 34.67578125 C-35.25028442 33.49838379 -35.25838135 32.32098633 -35.26672363 31.10791016 C-35.17069462 22.54077211 -34.07709912 14.27589673 -28.37890625 7.546875 C-27.15107422 6.65162109 -27.15107422 6.65162109 -25.8984375 5.73828125 C-25.08761719 5.11824219 -24.27679688 4.49820312 -23.44140625 3.859375 C-15.96431791 -0.40866255 -8.40775166 -0.00603406 0 0 Z " fill="#1F295B" transform="translate(448.7109375,308.69921875)"/>
<path d="M0 0 C1.33607108 -0.00389466 2.67214093 -0.0082309 4.00820923 -0.01298523 C6.80043562 -0.02041874 9.59253552 -0.02017738 12.38476562 -0.01489258 C15.94082254 -0.00910509 19.49635739 -0.0260249 23.05232811 -0.04923725 C25.80979374 -0.06406 28.56713613 -0.06483473 31.32463455 -0.06172752 C33.26595611 -0.06248191 35.20725872 -0.07628497 37.14852905 -0.09040833 C47.44889355 -0.03685305 55.0159231 1.2795512 62.62890625 8.46875 C67.56059932 13.91101835 68.40720328 19.98480771 68.43432617 27.06567383 C68.44070602 28.20067825 68.44708588 29.33568268 68.45365906 30.50508118 C68.45477188 31.72285751 68.4558847 32.94063385 68.45703125 34.1953125 C68.46202385 36.08729622 68.46202385 36.08729622 68.46711731 38.01750183 C68.47217704 40.68463675 68.47495892 43.35166975 68.47436523 46.01879883 C68.47426381 49.41795509 68.48790246 52.81690154 68.50513744 56.21600819 C68.51900568 59.47993485 68.51834819 62.7438604 68.51953125 66.0078125 C68.52671677 67.21951614 68.53390228 68.43121979 68.54130554 69.67964172 C68.49811324 85.74654062 68.49811324 85.74654062 62.83984375 91.85546875 C56.25471338 97.99274391 50.3596294 101.53486325 41.11938477 101.57543945 C39.92116592 101.58497147 38.72294708 101.59450348 37.48841858 101.60432434 C35.56635841 101.60295723 35.56635841 101.60295723 33.60546875 101.6015625 C32.26317717 101.60545502 30.92088681 101.60979083 29.57859802 101.61454773 C26.77200316 101.62198747 23.96553414 101.62173497 21.15893555 101.61645508 C17.57687154 101.61066182 13.99532484 101.62759827 10.41334629 101.65079975 C7.64309214 101.6655893 4.87296112 101.66640177 2.10267448 101.66329002 C0.14464411 101.66404735 -1.81336726 101.67787577 -3.77134705 101.69197083 C-10.19832907 101.65864863 -15.05851598 101.46058161 -20.7109375 98.30078125 C-21.47921875 97.88957031 -22.2475 97.47835937 -23.0390625 97.0546875 C-29.70648791 92.92142581 -32.49460024 88.80428449 -34.7109375 81.30078125 C-35.93366276 75.64785937 -35.87258238 70.06690834 -35.87890625 64.3125 C-35.88223465 63.25472855 -35.88556305 62.19695709 -35.88899231 61.10713196 C-35.89404374 58.87391595 -35.89640119 56.64069242 -35.89624023 54.4074707 C-35.89842325 51.01045133 -35.91658869 47.61375872 -35.93554688 44.21679688 C-35.93848195 42.04036569 -35.94046598 39.86393296 -35.94140625 37.6875 C-35.94859177 36.68095871 -35.95577728 35.67441742 -35.96318054 34.63737488 C-35.9348108 25.77621769 -34.46535878 18.32159036 -30.7109375 10.30078125 C-30.0509375 10.30078125 -29.3909375 10.30078125 -28.7109375 10.30078125 C-28.3809375 9.31078125 -28.0509375 8.32078125 -27.7109375 7.30078125 C-26.328125 5.984375 -26.328125 5.984375 -24.5859375 4.73828125 C-24.02648437 4.32449219 -23.46703125 3.91070312 -22.890625 3.484375 C-15.63251127 -0.4568588 -8.05738679 -0.00578261 0 0 Z " fill="#202A5C" transform="translate(206.7109375,308.69921875)"/>
<path d="M0 0 C1.19521774 -0.00960754 2.39043549 -0.01921509 3.62187195 -0.02911377 C4.91559219 -0.03336365 6.20931244 -0.03761353 7.54223633 -0.04199219 C8.88641867 -0.04774836 10.230601 -0.05350603 11.57478333 -0.05926514 C14.39507427 -0.06976836 17.21533679 -0.0756147 20.03564453 -0.07910156 C23.63223537 -0.08456904 27.22844433 -0.1085619 30.82491589 -0.13707352 C33.60377561 -0.15579513 36.38254535 -0.16091064 39.16146278 -0.16243744 C41.12666343 -0.16690005 43.09181573 -0.18550451 45.05693054 -0.20440674 C54.96610462 -0.1798494 62.62087236 1.44447073 70.18676758 8.16113281 C79.31693172 18.55937531 77.65244193 34.41218685 77.57788086 47.28735352 C77.56182176 50.58749852 77.57777569 53.886416 77.59692383 57.18652344 C77.62717262 86.06540074 77.62717262 86.06540074 69.99926758 93.73144531 C63.51067426 98.84960298 57.51601429 101.26063112 49.29174805 101.33813477 C47.5087178 101.35738762 47.5087178 101.35738762 45.68966675 101.37702942 C44.4073819 101.38441635 43.12509705 101.39180328 41.80395508 101.39941406 C41.14711857 101.40348959 40.49028206 101.40756512 39.81354141 101.41176414 C36.33313568 101.43259313 32.85276894 101.44690542 29.37231445 101.45629883 C25.8016158 101.46732419 22.23154703 101.50168704 18.66106987 101.54147053 C15.89499872 101.56779457 13.12907369 101.57600475 10.36288834 101.57958031 C8.4143506 101.58673812 6.4659134 101.61311185 4.51754761 101.63996887 C-4.90215605 101.61714841 -12.61204152 100.32692552 -19.75073242 93.84863281 C-24.72565315 88.40548425 -26.92415542 81.96734924 -26.97436523 74.63916016 C-26.98397278 73.50723236 -26.99358032 72.37530457 -27.003479 71.20907593 C-27.00772888 69.98411407 -27.01197876 68.75915222 -27.01635742 67.49707031 C-27.0220575 66.23528961 -27.02775757 64.97350891 -27.03363037 63.67349243 C-27.04308645 60.99860022 -27.04997958 58.32382034 -27.0534668 55.64892578 C-27.05892729 52.2429941 -27.08290482 48.83746709 -27.11143875 45.43166161 C-27.13470522 42.16182908 -27.13652509 38.89197397 -27.14135742 35.62207031 C-27.15370422 34.40925385 -27.16605103 33.19643738 -27.17877197 31.9468689 C-27.15261447 21.91616739 -25.76793201 14.32927866 -18.78588867 6.88769531 C-13.34714042 2.12744436 -7.14636857 0.04634529 0 0 Z " fill="#202A5B" transform="translate(440.813232421875,190.8388671875)"/>
<path d="M0 0 C9.38173264 6.52642271 13.40494268 18.25988987 16.70703125 28.71875 C18.29533416 33.18087189 20.3271231 37.37944879 22.37841797 41.64331055 C23.9261912 44.8859663 25.33223173 48.06080774 26.375 51.5 C27.6334855 55.64284047 29.44904577 59.47754465 31.3125 63.375 C33.75323304 68.48349638 35.86368255 73.56092941 37.7109375 78.91796875 C39.56780314 83.83430093 41.77306015 88.59603811 43.97045898 93.3684082 C45.64845813 97.0551011 47.15311997 100.70340023 48.390625 104.5625 C49.99492346 109.55690163 52.21800169 114.1481302 54.53320312 118.84375 C55.9394489 121.75818686 56.875 123.71876684 56.875 127 C52.18889842 129.34305079 45.25783507 128.62286874 40.3046875 127.328125 C38.46381684 126.62872611 36.66300318 125.82523223 34.875 125 C34.875 124.34 34.875 123.68 34.875 123 C33.39 122.505 33.39 122.505 31.875 122 C27.73325978 115.49470669 25.07447931 108.22843227 22.83203125 100.88671875 C21.71498053 97.51732904 20.2733075 94.2627175 18.875 91 C1.715 90.67 -15.445 90.34 -33.125 90 C-34.115 92.97 -35.105 95.94 -36.125 99 C-37.125 101.33333333 -38.125 103.66666667 -39.125 106 C-39.59131663 107.47666932 -40.04922279 108.95601312 -40.5 110.4375 C-42.91693149 117.77595519 -46.13024053 123.27938326 -53.125 127 C-56.34282125 128.03381066 -59.31845873 128.13416746 -62.6875 128.125 C-63.63753906 128.12757813 -64.58757812 128.13015625 -65.56640625 128.1328125 C-68.125 128 -68.125 128 -71.125 127 C-69.53003944 121.78012908 -67.68687262 116.97079643 -65.14770508 112.14111328 C-64.14852794 110.04925759 -63.43175918 108.01681967 -62.74609375 105.8046875 C-61.2080127 101.08327111 -59.26214226 96.63125439 -57.1875 92.125 C-54.60483634 86.4234392 -52.23070169 80.74521018 -50.1796875 74.828125 C-48.56067329 70.48676839 -46.64695314 66.28098046 -44.76367188 62.04907227 C-42.90296158 57.84504239 -41.17686934 53.6192208 -39.5625 49.3125 C-37.46526838 43.72680389 -35.00231889 38.37390105 -32.45703125 32.98046875 C-31.35352515 30.5113334 -30.46560622 28.14504885 -29.6875 25.5625 C-27.68273562 19.0347916 -24.26100623 13.04003392 -21.125 7 C-20.465 7 -19.805 7 -19.125 7 C-19.104375 6.4225 -19.08375 5.845 -19.0625 5.25 C-17.82898726 2.28956942 -15.94959437 1.20990753 -13.15625 -0.23828125 C-8.61108185 -1.94271931 -4.61401079 -1.47648345 0 0 Z M-7.125 27 C-9.46808006 31.99549934 -11.80093165 36.99562885 -14.125 42 C-14.5375 42.88558594 -14.95 43.77117187 -15.375 44.68359375 C-17.31665682 48.93855265 -18.91225927 53.20083295 -20.33203125 57.65625 C-21.51327476 61.14761012 -22.93491196 64.53383425 -24.35546875 67.93359375 C-25.241329 69.94486874 -25.241329 69.94486874 -25.125 72 C-12.915 72 -0.705 72 11.875 72 C7.97777389 61.84686489 7.97777389 61.84686489 3.9765625 51.73828125 C3.11296516 49.5915375 2.25468716 47.44265375 1.3984375 45.29296875 C1.13667725 44.63603027 0.87491699 43.9790918 0.60522461 43.30224609 C-0.15022761 41.40605404 -0.90520428 39.50967254 -1.66015625 37.61328125 C-3.10325546 34.05363652 -4.60001846 30.5251057 -6.125 27 C-6.455 27 -6.785 27 -7.125 27 Z " fill="#111D43" transform="translate(435.125,460)"/>
<path d="M0 0 C4.3737617 3.81648705 5.98814985 8.99422977 7.8984375 14.328125 C10.07786256 20.28517485 12.40538949 26.1475213 14.8828125 31.98828125 C15.97246778 34.64151722 16.94943545 37.30936069 17.8984375 40.015625 C19.57827732 44.74660245 21.54472261 49.30808963 23.5859375 53.890625 C25.71562216 58.67286098 27.66065519 63.38638559 29.203125 68.39453125 C31.13363406 73.97462173 33.64827961 79.36194864 36.0234375 84.765625 C38.93199994 80.28951956 40.92340443 75.55189856 42.9609375 70.640625 C43.31720215 69.78823242 43.6734668 68.93583984 44.04052734 68.05761719 C46.17321007 62.92001285 48.18472872 57.76112425 50.02734375 52.51171875 C51.74628171 47.77284272 53.66676903 43.11325986 55.55859375 38.44140625 C56.56575564 35.91410136 57.54508362 33.38904038 58.4921875 30.83984375 C60.0666879 26.61409114 61.74765135 22.43677399 63.4609375 18.265625 C63.74775391 17.55792969 64.03457031 16.85023438 64.33007812 16.12109375 C70.52705781 1.02199403 70.52705781 1.02199403 78.09375 -3.109375 C84.80363596 -5.68597121 92.06554176 -5.89346659 99.0234375 -4.234375 C98.65992188 -3.25210937 98.65992188 -3.25210937 98.2890625 -2.25 C96.47592802 2.68730466 94.73940664 7.62706679 93.1484375 12.640625 C91.34500473 18.13646161 89.02732099 23.27227177 86.48828125 28.46484375 C85.35797952 31.01179032 84.44013243 33.43119827 83.5859375 36.0703125 C82.02116376 40.9048082 80.0948198 45.53869163 78.0859375 50.203125 C76.02519871 55.0194567 73.98211857 59.83707666 72.05078125 64.70703125 C69.61793928 70.82870185 66.99511732 76.86519074 64.37890625 82.91015625 C62.50326071 87.26088044 60.67175276 91.61967702 58.93359375 96.02734375 C57.43536441 99.80222866 55.80007408 103.45379984 53.9609375 107.078125 C53.47496094 108.04363281 52.98898437 109.00914062 52.48828125 110.00390625 C48.94801976 116.67847925 46.27267788 120.16599986 39.0234375 122.765625 C35.67919922 122.97924805 35.67919922 122.97924805 32.203125 122.90234375 C31.04280762 122.88260498 29.88249023 122.86286621 28.68701172 122.8425293 C27.80803223 122.81715088 26.92905273 122.79177246 26.0234375 122.765625 C24.24470472 118.9567628 22.47691967 115.14291372 20.7109375 111.328125 C19.96166992 109.72420898 19.96166992 109.72420898 19.19726562 108.08789062 C16.73145531 102.74802326 14.50028748 97.48734916 12.73706055 91.87719727 C11.46569159 88.1152848 9.75219487 84.55304432 8.0859375 80.953125 C5.36271722 74.9664654 3.04054416 69.04246282 1.08203125 62.7578125 C-0.44430154 58.44352866 -2.42915293 54.38146307 -4.41040039 50.26098633 C-6.13643712 46.64635884 -7.67139479 43.05173651 -8.9765625 39.265625 C-10.54060715 34.72921843 -12.47220587 30.4628655 -14.5390625 26.140625 C-16.75005235 21.51068091 -18.73168869 16.94487893 -20.22265625 12.03125 C-21.56019114 8.01171511 -23.3061842 4.15472886 -24.98828125 0.26953125 C-25.9765625 -2.234375 -25.9765625 -2.234375 -25.9765625 -4.234375 C-16.59318005 -6.4718174 -8.11185217 -5.12043825 0 0 Z " fill="#111D43" transform="translate(301.9765625,465.234375)"/>
<path d="M0 0 C4.93746807 3.76806774 5.65221466 6.95097726 6.62704468 12.96099854 C7.21592053 17.75941397 7.30529963 22.50596623 7.30078125 27.3359375 C7.30506638 28.37714752 7.3093515 29.41835754 7.31376648 30.49111938 C7.31946898 32.677666 7.32004046 34.86423156 7.31567383 37.05078125 C7.3125146 40.35971054 7.33602308 43.66774331 7.36132812 46.9765625 C7.44309145 73.77323175 7.44309145 73.77323175 1.375 82 C-4.87332681 88.27956845 -12.18842001 91.09495291 -20.89501953 91.17700195 C-22.67804977 91.19625481 -22.67804977 91.19625481 -24.49710083 91.21589661 C-25.77938568 91.22328354 -27.06167053 91.23067047 -28.3828125 91.23828125 C-29.03964901 91.24235678 -29.69648552 91.2464323 -30.37322617 91.25063133 C-33.8536319 91.27146032 -37.33399864 91.28577261 -40.81445312 91.29516602 C-44.38515178 91.30619137 -47.95522055 91.34055423 -51.52569771 91.38033772 C-54.29176886 91.40666176 -57.05769389 91.41487194 -59.82387924 91.41844749 C-61.77241698 91.42560531 -63.72085418 91.45197904 -65.66921997 91.47883606 C-75.08892363 91.4560156 -82.7988091 90.1657927 -89.9375 83.6875 C-94.35179036 78.85774702 -96.84250396 72.99242478 -97.1875 66.4375 C-97 63 -97 63 -95 61 C-93.64190413 60.51255065 -92.26304347 60.08166566 -90.875 59.6875 C-86.75863265 58.39038103 -83.4707283 56.61774313 -79.921875 54.18359375 C-78 53 -78 53 -75.65917969 52.07983398 C-71.37675328 50.34083545 -67.48865788 47.94611791 -63.5 45.625 C-62.65824219 45.14289063 -61.81648438 44.66078125 -60.94921875 44.1640625 C-56.68387817 41.69218009 -52.81789649 39.13440326 -49 36 C-46.90234375 34.875 -46.90234375 34.875 -44.9375 34 C-41.620042 32.41554245 -39.56727206 30.65008729 -37 28 C-35.85042463 27.3042759 -34.68173099 26.63958379 -33.5 26 C-31.25178685 24.78063016 -29.83712415 23.83712415 -28 22 C-26.16287585 20.16287585 -24.74821315 19.21936984 -22.5 18 C-19.47043409 16.35042703 -17.41110475 14.48645177 -15 12 C-13.22203391 10.70473964 -11.41678146 9.4653239 -9.5859375 8.24609375 C-7.71394537 6.90843128 -7.71394537 6.90843128 -6 4 C-4.35857037 2.9590934 -2.69287785 1.95495674 -1 1 C-0.67 0.67 -0.34 0.34 0 0 Z " fill="#1F295A" transform="translate(390,201)"/>
<path d="M0 0 C0.25153688 6.28842188 -0.48766061 10.73149092 -4 16 C-10.5223955 19.70731974 -16.90355268 20.58136176 -24.27734375 20.5390625 C-25.21050919 20.55085541 -26.14367462 20.56264832 -27.1051178 20.57479858 C-30.04941994 20.60975302 -32.99300812 20.61920328 -35.9375 20.625 C-38.90677258 20.64135565 -41.87573149 20.66334834 -44.84486389 20.69662476 C-46.68335344 20.71622961 -48.52198751 20.72559235 -50.36058044 20.72354126 C-51.18896927 20.73050018 -52.01735809 20.73745911 -52.87084961 20.74462891 C-53.96144936 20.74651718 -53.96144936 20.74651718 -55.07408142 20.7484436 C-57.32651834 20.89826589 -57.32651834 20.89826589 -60 23 C-60.510605 25.71004503 -60.510605 25.71004503 -60.51171875 28.8828125 C-60.54483154 29.93355957 -60.57794434 30.98430664 -60.61206055 32.06689453 C-60.63695557 33.40606934 -60.66185059 34.74524414 -60.6875 36.125 C-60.790625 40.37375 -60.89375 44.6225 -61 49 C-45.82 49 -30.64 49 -15 49 C-15 55.1303155 -15.59760614 58.10514503 -19 63 C-24.80630532 67.71762307 -29.06620393 68.12672141 -36.390625 68.09765625 C-37.09523865 68.0962413 -37.79985229 68.09482635 -38.52581787 68.09336853 C-40.76725584 68.08778933 -43.00859243 68.07524073 -45.25 68.0625 C-46.77343605 68.05748231 -48.29687368 68.05291987 -49.8203125 68.04882812 C-53.54690772 68.03782674 -57.27344396 68.02057646 -61 68 C-59.92259715 86.18546233 -59.92259715 86.18546233 -51 101.5625 C-40.45157345 108.87101077 -25.87181809 107.36469808 -13.6875 107.1875 C-11.8678497 107.17241599 -10.04818721 107.15873421 -8.22851562 107.14648438 C-3.81870343 107.11379593 0.59050971 107.06222235 5 107 C4.87185169 108.59695407 4.73468898 110.19318641 4.59375 111.7890625 C4.51833984 112.67803223 4.44292969 113.56700195 4.36523438 114.48291016 C3.81429238 118.27984327 2.64043483 120.22754343 0 123 C-7.17145794 127.9517468 -15.40474208 127.61355178 -23.75366211 127.52148438 C-26.03415122 127.50026379 -28.31141077 127.52123329 -30.59179688 127.546875 C-43.58816388 127.57359226 -55.73326839 125.89220587 -67 119 C-67 118.34 -67 117.68 -67 117 C-67.763125 116.74734375 -68.52625 116.4946875 -69.3125 116.234375 C-75.8207191 113.24513483 -78.36453315 105.52301931 -80.75 99.1875 C-84.48336463 88.77141269 -85.30981305 78.14577548 -85.30078125 67.1484375 C-85.30720894 65.37830795 -85.30720894 65.37830795 -85.31376648 63.57241821 C-85.31946919 61.0967879 -85.32004031 58.62114084 -85.31567383 56.14550781 C-85.31250249 52.37796385 -85.33606464 48.61119791 -85.36132812 44.84375 C-85.36360054 42.42448015 -85.36430488 40.0052082 -85.36328125 37.5859375 C-85.37709587 35.91523697 -85.37709587 35.91523697 -85.39118958 34.21078491 C-85.33725511 25.01803231 -84.01341328 16.1071904 -78.0625 8.7578125 C-68.76049873 0.8299705 -55.52137922 0.87933728 -43.96484375 0.68359375 C-42.40861046 0.6524221 -42.40861046 0.6524221 -40.82093811 0.62062073 C-37.5265209 0.55566161 -34.23202738 0.49657628 -30.9375 0.4375 C-28.72069589 0.39424924 -26.50389889 0.35063298 -24.28710938 0.30664062 C-7.01988998 -0.02857816 -7.01988998 -0.02857816 0 0 Z " fill="#111D43" transform="translate(264,460)"/>
<path d="M0 0 C-0.27234763 6.00526533 -0.75531348 11.4599389 -5 16 C-11.5527023 19.6820887 -17.91568416 20.59021109 -25.3125 20.57421875 C-26.71580566 20.59546562 -26.71580566 20.59546562 -28.14746094 20.61714172 C-31.09842823 20.65865358 -34.04878328 20.67421928 -37 20.6875 C-39.97949926 20.71657884 -42.95884616 20.75105798 -45.93823242 20.78999329 C-47.78337665 20.81245279 -49.62861584 20.82828915 -51.47387695 20.83683777 C-52.30234131 20.84387222 -53.13080566 20.85090668 -53.984375 20.8581543 C-54.71366211 20.86163376 -55.44294922 20.86511322 -56.19433594 20.86869812 C-58.10181336 20.89208693 -58.10181336 20.89208693 -60 22 C-61.27366488 30.91565415 -61 39.99382928 -61 49 C-46.15 49 -31.3 49 -16 49 C-17.33333333 59.66666667 -17.33333333 59.66666667 -20 64 C-27.39015101 69.52978115 -36.84565799 68.45399277 -45.5625 68.25 C-47.06312713 68.2298987 -48.56378034 68.21165436 -50.06445312 68.1953125 C-53.71018483 68.15161687 -57.35492199 68.08279202 -61 68 C-61.1594911 83.34193492 -61.1594911 83.34193492 -55 97 C-54.27490234 98.01126953 -54.27490234 98.01126953 -53.53515625 99.04296875 C-48.7791157 104.68277234 -43.08884839 105.93155567 -36 107 C-29.25988198 107.45224765 -22.49964056 107.28518732 -15.75 107.1875 C-13.92579235 107.17241988 -12.10157258 107.15873739 -10.27734375 107.14648438 C-5.85125813 107.11375617 -1.42576611 107.06215964 3 107 C3.02536079 108.77206158 3.0435181 110.54422733 3.05859375 112.31640625 C3.07490845 113.79669312 3.07490845 113.79669312 3.09155273 115.30688477 C2.97058514 118.86526748 2.54017609 120.45982391 0 123 C-7.24090822 127.87561232 -15.31788958 127.61414942 -23.69873047 127.52148438 C-25.96824303 127.50029648 -28.23449828 127.52121524 -30.50390625 127.546875 C-38.27912983 127.56254171 -45.62416436 126.94892132 -53.2109375 125.19140625 C-53.89663818 125.032771 -54.58233887 124.87413574 -55.28881836 124.71069336 C-64.47205556 122.36473495 -71.65315249 117.5836883 -77 109.6875 C-84.58022323 96.28344672 -85.15375331 83.67515156 -85.16796875 68.5546875 C-85.17129715 67.30422638 -85.17462555 66.05376526 -85.17805481 64.76541138 C-85.18308863 62.13837041 -85.18546424 59.51132313 -85.18530273 56.88427734 C-85.18522112 54.20777685 -85.19222732 51.53144622 -85.20581055 48.85498047 C-85.22417492 44.96316361 -85.22904043 41.07154342 -85.23046875 37.1796875 C-85.23765427 35.99196747 -85.24483978 34.80424744 -85.25224304 33.58053589 C-85.22930594 25.1932161 -85.17164085 16.42847868 -79.7265625 9.56640625 C-67.35471105 -1.65783002 -46.69036732 0.60092216 -31.25 0.375 C-29.10805854 0.33673367 -26.96613105 0.29767723 -24.82421875 0.2578125 C-16.54890115 0.1090776 -8.27682212 -0.02302483 0 0 Z " fill="#121D43" transform="translate(686,460)"/>
<path d="M0 0 C0.28795434 5.56711726 0.2713987 9.25119544 -3 14 C-9.67221822 20.09560677 -16.10599004 20.14091194 -24.7890625 20.2109375 C-26.71875879 20.23898499 -28.6484462 20.26764928 -30.578125 20.296875 C-33.61100206 20.33825929 -36.64370929 20.37516165 -39.67675781 20.40136719 C-42.61037006 20.42889056 -45.54323586 20.47473395 -48.4765625 20.5234375 C-49.38596588 20.52669037 -50.29536926 20.52994324 -51.23233032 20.53329468 C-52.0768576 20.54986115 -52.92138489 20.56642761 -53.79150391 20.58349609 C-54.53365143 20.59158295 -55.27579895 20.5996698 -56.04043579 20.60800171 C-58.55383701 21.11079155 -59.45412549 21.9867319 -61 24 C-61.41410433 26.7094472 -61.41410433 26.7094472 -61.29296875 29.76171875 C-61.28547607 30.76936279 -61.2779834 31.77700684 -61.27026367 32.81518555 C-61.24295166 34.09304932 -61.21563965 35.37091309 -61.1875 36.6875 C-61.125625 40.750625 -61.06375 44.81375 -61 49 C-46.15 49 -31.3 49 -16 49 C-16 58.55172414 -16 58.55172414 -19 63 C-21.375 64.75 -21.375 64.75 -24 66 C-25.08704224 66.52086182 -25.08704224 66.52086182 -26.19604492 67.05224609 C-29.70841511 68.23944863 -32.78253666 68.32547896 -36.48828125 68.4140625 C-37.19147995 68.43342865 -37.89467865 68.4527948 -38.6191864 68.4727478 C-40.85017019 68.53220183 -43.08120654 68.57879049 -45.3125 68.625 C-46.83140186 68.66321137 -48.35028278 68.70226492 -49.86914062 68.7421875 C-53.57923467 68.83787416 -57.28948651 68.92203072 -61 69 C-60.87154755 71.2165604 -60.73443683 73.43261999 -60.59375 75.6484375 C-60.51833984 76.88255371 -60.44292969 78.11666992 -60.36523438 79.38818359 C-59.87914745 84.1951154 -58.56478101 88.45873337 -57 93 C-56.65270726 94.32976563 -56.31478446 95.66216607 -56 97 C-55.34 97 -54.68 97 -54 97 C-53.4225 97.9075 -52.845 98.815 -52.25 99.75 C-48.05627779 104.85513982 -41.27285125 105.99527413 -35 107 C-28.22275412 107.58796254 -21.41827742 107.38236901 -14.625 107.25 C-12.80991578 107.22988287 -10.99480976 107.21164142 -9.1796875 107.1953125 C-4.78590794 107.1517788 -0.39320301 107.08304732 4 107 C4.03888435 108.77196186 4.06672698 110.54416856 4.08984375 112.31640625 C4.11485962 113.79669312 4.11485962 113.79669312 4.14038086 115.30688477 C4 118 4 118 2.5625 120.9375 C-5.93209166 127.77461036 -15.02674996 127.6524631 -25.4375 127.5 C-26.19533783 127.49313171 -26.95317566 127.48626343 -27.73397827 127.47918701 C-44.37681193 127.30180078 -58.08598176 126.54898898 -71.3984375 115.73046875 C-74.36665449 112.61517794 -76.01685167 109.80973232 -78 106 C-78.39445312 105.28972656 -78.78890625 104.57945312 -79.1953125 103.84765625 C-79.50210938 103.25855469 -79.80890625 102.66945313 -80.125 102.0625 C-80.43695313 101.47597656 -80.74890625 100.88945313 -81.0703125 100.28515625 C-84.5540241 91.72225168 -84.34390275 83.09681662 -84.37109375 74.00390625 C-84.38007614 72.44506248 -84.38919823 70.8862195 -84.39845276 69.32737732 C-84.41487782 66.0703625 -84.42263139 62.81344971 -84.42553711 59.55639648 C-84.43092471 55.40266158 -84.46864717 51.24989732 -84.51428127 47.0964365 C-84.5441558 43.88002592 -84.55126285 40.6638467 -84.55226326 37.44730949 C-84.55644234 35.91681392 -84.56878281 34.38631617 -84.58978081 32.85595894 C-84.71760763 22.73811897 -83.9169632 15.3508129 -76.875 7.6875 C-66.47851362 1.58521452 -55.72033708 0.88270721 -43.96484375 0.68359375 C-42.40861046 0.6524221 -42.40861046 0.6524221 -40.82093811 0.62062073 C-37.5265209 0.55566161 -34.23202738 0.49657628 -30.9375 0.4375 C-28.72069589 0.39424924 -26.50389889 0.35063298 -24.28710938 0.30664062 C-7.01988998 -0.02857816 -7.01988998 -0.02857816 0 0 Z " fill="#121D43" transform="translate(84,460)"/>
<path d="M0 0 C0.87898956 -0.00043808 1.75797913 -0.00087616 2.66360474 -0.00132751 C5.54224583 0.00074709 8.42028994 0.02401495 11.29882812 0.04760742 C13.30521324 0.05320811 15.31160247 0.05747597 17.31799316 0.06047058 C22.57877077 0.07188213 27.83929683 0.10131743 33.09997559 0.13458252 C38.47612099 0.16536314 43.85230735 0.17899296 49.22851562 0.1940918 C59.76247984 0.22619077 70.296258 0.27734228 80.83007812 0.34057617 C80.85715063 1.94725399 80.876507 3.55406315 80.89257812 5.16088867 C80.90417969 6.05565918 80.91578125 6.95042969 80.92773438 7.87231445 C80.79306608 11.27605568 80.17354643 12.8506411 77.83007812 15.34057617 C69.83007812 19.34057617 69.83007812 19.34057617 40.83007812 19.34057617 C41.16007813 54.65057617 41.49007812 89.96057617 41.83007812 126.34057617 C33.14058111 126.34057617 26.74401885 126.05881986 20.33007812 119.96557617 C16.95227246 114.05441625 16.54614487 108.84880604 16.60302734 102.21411133 C16.60273529 101.31590668 16.60244324 100.41770203 16.60214233 99.49227905 C16.60353019 96.53796564 16.61906581 93.58390776 16.63476562 90.62963867 C16.63849769 88.57555275 16.64134375 86.52146505 16.64334106 84.46737671 C16.6509623 79.07182871 16.67059786 73.67638909 16.69274902 68.28088379 C16.71684527 61.80137878 16.72599562 55.32183745 16.73765564 48.84230042 C16.75702308 39.00831706 16.79535629 29.1745713 16.83007812 19.34057617 C3.63007812 19.34057617 -9.56992187 19.34057617 -23.16992188 19.34057617 C-21.8151334 7.14747988 -21.8151334 7.14747988 -17.16992188 3.34057617 C-11.21815845 0.69738501 -6.4673633 -0.08582124 0 0 Z " fill="#111D43" transform="translate(511.169921875,460.659423828125)"/>
<path d="M0 0 C21.7049513 0 21.7049513 0 31.859375 9.59375 C38.57793292 17.14599758 38.15745927 27.42518043 38.16796875 36.98828125 C38.17296135 38.57493843 38.17296135 38.57493843 38.17805481 40.19364929 C38.18310624 42.4268653 38.18546369 44.66008883 38.18530273 46.89331055 C38.18748575 50.29032992 38.20565119 53.68702253 38.22460938 57.08398438 C38.22754445 59.26041556 38.22952848 61.43684829 38.23046875 63.61328125 C38.23765427 64.61982254 38.24483978 65.62636383 38.25224304 66.66340637 C38.22318489 75.73958324 37.38970341 86.09069904 31.0859375 93.140625 C21.27727798 102.51109698 14.18251758 101 0 101 C0 67.67 0 34.34 0 0 Z " fill="#212A5A" transform="translate(480,73)"/>
<path d="M0 0 C7.81797575 -0.17683517 12.9232208 2.17640176 19.421875 6.23046875 C25.25674981 12.77303877 24.42786973 21.700218 24.41069031 29.90485954 C24.40617014 32.25638857 24.42032926 34.60718158 24.43908691 36.95863342 C24.47568389 41.9515774 24.48954648 46.94444173 24.5 51.9375 C24.51212683 57.72534476 24.53386975 63.51282628 24.58000183 69.3005085 C24.59346244 71.60315296 24.58942189 73.90532496 24.58459473 76.20799255 C24.62066022 86.07051207 25.07426653 95.1031926 32.1784668 102.57446289 C39.87410369 108.5970904 50.90346978 107.35587659 60.125 107.1875 C61.57290266 107.17241768 63.02082062 107.15873558 64.46875 107.14648438 C67.97948994 107.11377849 71.48964399 107.06219511 75 107 C74.34989117 113.98319152 73.24471821 118.08171653 68 123 C59.16064657 129.52865108 44.96164037 128.05042604 34.62402344 126.68652344 C23.71227601 124.81443338 14.79274343 121.38066674 8.1875 112.125 C0.50651888 98.54493727 0.39722727 83.91072132 0.390625 68.75 C0.37560698 66.75503217 0.3588724 64.76007661 0.34051514 62.76513672 C0.29723557 57.57034667 0.27693094 52.37572418 0.26177979 47.18078613 C0.24206507 41.85740407 0.20011229 36.5341993 0.16015625 31.2109375 C0.085282 20.80734689 0.03473305 10.40379677 0 0 Z " fill="#121D43" transform="translate(97,460)"/>
<path d="M0 0 C33.66 0 67.32 0 102 0 C101.09276422 6.35065043 100.40645534 9.64154526 96 14 C89.02410404 19.18799966 83.77917968 22.10455415 75.07324219 22.16113281 C73.87809998 22.17074036 72.68295776 22.1803479 71.45159912 22.19024658 C70.16304016 22.19449646 68.8744812 22.19874634 67.546875 22.203125 C66.88754219 22.20595238 66.22820938 22.20877975 65.54889679 22.21169281 C62.05782167 22.22666133 58.56678761 22.23590474 55.07568359 22.24023438 C51.48696855 22.24570699 47.89863522 22.26971559 44.31003952 22.29820633 C41.53547099 22.31692536 38.76099259 22.32204326 35.98636627 22.32357025 C34.02559502 22.32803122 32.06487219 22.34663373 30.10418701 22.36553955 C23.34141234 22.34873496 18.14071199 21.9063351 12 19 C12 18.34 12 17.68 12 17 C11.443125 16.7525 10.88625 16.505 10.3125 16.25 C4.6112306 13.16823276 2.10069088 10.19150997 0 4 C0 2.68 0 1.36 0 0 Z " fill="#121E44" transform="translate(294,388)"/>
<path d="M0 0 C33.66 0 67.32 0 102 0 C98.5172358 11.609214 94.90251953 15.14008207 85 21 C81.79499891 22.0683337 79.46477938 22.13964171 76.0949707 22.16113281 C74.87973221 22.17074036 73.66449371 22.1803479 72.41242981 22.19024658 C71.09683578 22.19449646 69.78124176 22.19874634 68.42578125 22.203125 C67.05917866 22.208881 65.69257608 22.21463867 64.32597351 22.22039795 C61.45860418 22.23090155 58.59126281 22.23674766 55.72387695 22.24023438 C52.06675475 22.24570229 48.41000803 22.26969595 44.75300312 22.29820633 C41.92782042 22.31692521 39.10272625 22.3220433 36.2774868 22.32357025 C34.27904817 22.32803394 32.2806571 22.34663967 30.28230286 22.36553955 C23.46264042 22.34891364 18.18875767 21.94402005 12 19 C12 18.34 12 17.68 12 17 C11.443125 16.7525 10.88625 16.505 10.3125 16.25 C4.6112306 13.16823276 2.10069088 10.19150997 0 4 C0 2.68 0 1.36 0 0 Z " fill="#121E44" transform="translate(415,388)"/>
<path d="M0 0 C33.66 0 67.32 0 102 0 C102 7.08138435 100.6392321 9.06590145 96 14 C89.87601981 19.51644247 84.20947187 22.23786328 75.83032227 22.2746582 C74.63210342 22.28419022 73.43388458 22.29372223 72.19935608 22.30354309 C70.27729591 22.30217598 70.27729591 22.30217598 68.31640625 22.30078125 C66.97411467 22.30467377 65.63182431 22.30900958 64.28953552 22.31376648 C61.48294066 22.32120622 58.67647164 22.32095372 55.86987305 22.31567383 C52.28780904 22.30988057 48.70626234 22.32681702 45.12428379 22.3500185 C42.35402964 22.36480805 39.58389862 22.36562052 36.81361198 22.36250877 C34.85558161 22.3632661 32.89757024 22.37709452 30.93959045 22.39118958 C24.51260843 22.35786738 19.65242152 22.15980036 14 19 C13.23171875 18.58878906 12.4634375 18.17757813 11.671875 17.75390625 C11.03765625 17.36074219 10.4034375 16.96757812 9.75 16.5625 C9.10546875 16.17191406 8.4609375 15.78132813 7.796875 15.37890625 C2.28983173 11.15284913 2.06845178 6.89483928 0 0 Z " fill="#121E44" transform="translate(172,388)"/>
<path d="M0 0 C4.02199149 4.39905319 5.60195327 9.33032323 5.3515625 15.203125 C4.49333244 20.0473569 1.90610237 23.38436381 -1.75 26.625 C-2.4925 27.140625 -3.235 27.65625 -4 28.1875 C-3.12214844 29.20650391 -3.12214844 29.20650391 -2.2265625 30.24609375 C0.16845638 33.41003975 1.9186103 36.68998786 3.625 40.25 C3.9240625 40.86166016 4.223125 41.47332031 4.53125 42.10351562 C5.3583486 43.79613998 6.17939508 45.49171792 7 47.1875 C7.66409474 48.5221162 8.32935226 49.85616464 9 51.1875 C7.44014791 52.74735209 5.91093902 52.43202344 3.75 52.5 C2.59757812 52.55607422 2.59757812 52.55607422 1.421875 52.61328125 C-2.02643156 52.00704671 -3.51347278 50.63844893 -6 48.1875 C-7.4702483 45.84112609 -8.79458494 43.5718982 -10.0625 41.125 C-13.00303733 35.23572066 -13.00303733 35.23572066 -18 31.1875 C-20.64 30.5275 -23.28 29.8675 -26 29.1875 C-26.33 36.7775 -26.66 44.3675 -27 52.1875 C-33 52.1875 -33 52.1875 -35.34399414 50.81616211 C-37.91212196 46.73964255 -37.55207157 42.85264661 -37.49609375 38.12890625 C-37.49754898 37.14760239 -37.49900421 36.16629852 -37.50050354 35.15525818 C-37.49884484 33.08158396 -37.48728684 31.0078974 -37.46655273 28.93432617 C-37.4376362 25.76492823 -37.44593723 22.59720708 -37.45898438 19.42773438 C-37.45274561 17.41145022 -37.44435359 15.39517135 -37.43359375 13.37890625 C-37.43652939 12.43294083 -37.43946503 11.4869754 -37.44248962 10.51234436 C-37.37265812 5.62549719 -37.27074501 2.10047926 -34 -1.8125 C-22.9663772 -8.6778653 -10.61989642 -6.41618742 0 0 Z M-26 5.1875 C-27.43316898 8.05383795 -27.13200361 10.55985501 -27.125 13.75 C-27.12757813 14.92691406 -27.13015625 16.10382812 -27.1328125 17.31640625 C-27.32783188 20.08422701 -27.32783188 20.08422701 -26 21.1875 C-20.55396789 22.10223012 -15.64439358 22.75453227 -10.375 20.9375 C-7.78895904 19.24013783 -7.78895904 19.24013783 -6 16.1875 C-5.41630557 12.77211856 -5.41630557 12.77211856 -6 9.1875 C-8.54137159 6.02795695 -10.14622659 4.47209114 -14 3.1875 C-20.34215132 2.72750736 -20.34215132 2.72750736 -26 5.1875 Z " fill="#C02228" transform="translate(455,630.8125)"/>
<path d="M0 0 C0.7734375 -0.01160156 1.546875 -0.02320313 2.34375 -0.03515625 C10.88699322 0.00784665 17.21868051 2.53830751 23.48828125 8.33984375 C29.34196746 15.10208436 30.62224147 23.49438836 30.52734375 32.140625 C29.88434044 39.63931147 27.14904618 46.44061131 21.96484375 51.94140625 C15.53624286 57.31565802 8.55123823 58.60731236 0.4375 58.75 C-0.75456055 58.80607422 -0.75456055 58.80607422 -1.97070312 58.86328125 C-6.16232933 58.9256876 -8.91543021 58.70290402 -12.26171875 56.0390625 C-15.31864852 52.76618007 -15.87046663 50.57257529 -15.91113281 46.25830078 C-15.92074036 45.43379425 -15.9303479 44.60928772 -15.94024658 43.75979614 C-15.94449646 42.87226654 -15.94874634 41.98473694 -15.953125 41.0703125 C-15.95882507 40.15418182 -15.96452515 39.23805115 -15.97039795 38.29415894 C-15.97984327 36.35578566 -15.98638007 34.41739636 -15.99023438 32.47900391 C-15.99994011 29.51826898 -16.03096786 26.55822827 -16.0625 23.59765625 C-16.0690303 21.71354578 -16.07428066 19.82943036 -16.078125 17.9453125 C-16.0904718 17.06183136 -16.1028186 16.17835022 -16.11553955 15.26809692 C-16.09432203 9.39433292 -15.17015614 6.01412265 -11.109375 1.5859375 C-7.4757105 -0.27902276 -4.02399029 -0.05917633 0 0 Z M-3.93945312 8.88671875 C-6.43652545 12.31850962 -6.32512711 15.41266163 -6.28125 19.5 C-6.2850769 20.28391113 -6.28890381 21.06782227 -6.29284668 21.87548828 C-6.29556353 23.52963549 -6.2882181 25.18382583 -6.27148438 26.83789062 C-6.25006892 29.36686162 -6.27129097 31.89299214 -6.296875 34.421875 C-6.29423168 36.03125626 -6.28910661 37.64063575 -6.28125 39.25 C-6.28934692 40.0042627 -6.29744385 40.75852539 -6.30578613 41.53564453 C-6.2437403 45.01734753 -6.01469176 47.01680453 -3.91992188 49.8515625 C-0.67306324 52.13108522 1.35145568 51.89480591 5.25 51.375 C9.5731774 49.93663444 12.55880856 48.13894843 15.625 44.75 C19.69159559 36.30399378 20.39527172 27.01089233 17.49609375 18.04296875 C15.39096219 13.29541264 12.9192401 10.85863835 8.25 8.375 C3.9302507 6.93508357 -0.03300042 6.18948914 -3.93945312 8.88671875 Z " fill="#C02228" transform="translate(46.75,625.625)"/>
<path d="M0 0 C2.75 2.1875 2.75 2.1875 4.75 5.1875 C2.75 7.1875 2.75 7.1875 -0.3125 7.375 C-4.25 7.1875 -4.25 7.1875 -6.4296875 6.81640625 C-11.52310446 5.96162866 -14.98083816 6.14388723 -19.5234375 8.75 C-23.72148441 12.24520648 -25.71680431 17.85554309 -26.25 23.1875 C-26.77023008 30.86089365 -25.75128187 38.02798605 -20.875 44.1875 C-16.85726537 47.24863114 -14.16137533 48.43274157 -9.125 48 C-4.84318068 47.20731219 -4.84318068 47.20731219 -2.25 44.1875 C-1.88680691 41.21557238 -1.88680691 41.21557238 -2.0625 38 C-2.08957031 36.91332031 -2.11664063 35.82664062 -2.14453125 34.70703125 C-2.19673828 33.45986328 -2.19673828 33.45986328 -2.25 32.1875 C-2.86488281 32.15011719 -3.47976562 32.11273437 -4.11328125 32.07421875 C-4.92152344 32.00847656 -5.72976562 31.94273437 -6.5625 31.875 C-7.76326172 31.78798828 -7.76326172 31.78798828 -8.98828125 31.69921875 C-11.71402068 31.08251432 -12.67704833 30.49347769 -14.25 28.1875 C-14.4375 25.5 -14.4375 25.5 -14.25 23.1875 C-11.68685501 23.10617813 -9.12631582 23.04685825 -6.5625 23 C-5.84126953 22.97486328 -5.12003906 22.94972656 -4.37695312 22.92382812 C0.20882272 22.86100928 3.17591999 23.23672893 6.75 26.1875 C9.41908054 29.69774532 9.11722543 33.82535721 9.125 38.0625 C9.14949219 38.75730469 9.17398438 39.45210937 9.19921875 40.16796875 C9.22847337 45.34603608 8.02476112 48.22732376 4.75 52.1875 C-0.59099063 57.02413559 -7.72253294 56.83943984 -14.5546875 56.62890625 C-22.81447102 55.64227249 -28.72934992 51.82543571 -33.84375 45.3359375 C-39.29954789 37.00069072 -39.33876627 27.24313237 -37.8515625 17.60546875 C-35.93353887 10.49383568 -31.14108231 4.97112042 -25.21875 0.734375 C-17.96958591 -3.1066 -7.34056185 -3.97741741 0 0 Z " fill="#C02228" transform="translate(136.25,627.8125)"/>
<path d="M0 0 C3.6875 0.375 3.6875 0.375 5.71533203 2.42236328 C7.96414214 5.78917554 9.48294915 9.23538667 10.9296875 12.9921875 C11.2205423 13.72639923 11.51139709 14.46061096 11.81106567 15.21707153 C12.73641456 17.55824665 13.64970067 19.9039074 14.5625 22.25 C15.16716006 23.78677677 15.77262243 25.32323811 16.37890625 26.859375 C17.57252511 29.88570876 18.76022461 32.91427096 19.94433594 35.94433594 C21.10137884 38.89787008 22.27666995 41.84305706 23.46972656 44.78222656 C23.89029831 45.82046066 23.89029831 45.82046066 24.31936646 46.87966919 C25.08540869 48.76607873 25.8553215 50.65091516 26.62548828 52.53564453 C27.6875 55.375 27.6875 55.375 27.6875 57.375 C20.3863266 57.74005867 20.3863266 57.74005867 17.59375 56.28125 C13.67930199 52.36680199 12.50441645 46.47246005 10.6875 41.375 C3.7575 41.375 -3.1725 41.375 -10.3125 41.375 C-12.1621937 45.88819502 -12.1621937 45.88819502 -13.99145508 50.40966797 C-15.4287119 53.83927363 -16.14605483 55.26403656 -19.3125 57.375 C-21.35546875 57.5703125 -21.35546875 57.5703125 -23.5 57.5 C-24.758125 57.45875 -26.01625 57.4175 -27.3125 57.375 C-25.41747588 50.72266719 -23.22948189 44.27985605 -20.66015625 37.859375 C-20.31875107 36.99991272 -19.97734589 36.14045044 -19.62559509 35.25494385 C-18.90924833 33.45587099 -18.19068319 31.65767995 -17.4699707 29.86035156 C-16.37341733 27.12104633 -15.28895157 24.37715557 -14.20507812 21.6328125 C-13.50333199 19.87470931 -12.80088229 18.11688676 -12.09765625 16.359375 C-11.77773209 15.54676208 -11.45780792 14.73414917 -11.12818909 13.89691162 C-5.77748097 0.65405445 -5.77748097 0.65405445 0 0 Z M-0.3125 12.375 C-1.4846449 15.33119219 -2.64927476 18.29028789 -3.8125 21.25 C-4.31330078 22.51263672 -4.31330078 22.51263672 -4.82421875 23.80078125 C-5.14003906 24.60644531 -5.45585937 25.41210938 -5.78125 26.2421875 C-6.07451172 26.98581543 -6.36777344 27.72944336 -6.66992188 28.49560547 C-7.42033991 30.35937213 -7.42033991 30.35937213 -7.3125 32.375 C-2.3625 32.375 2.5875 32.375 7.6875 32.375 C5.48507472 25.65760289 3.13017356 19.00865662 0.6875 12.375 C0.3575 12.375 0.0275 12.375 -0.3125 12.375 Z " fill="#C02228" transform="translate(247.3125,625.625)"/>
<path d="M0 0 C7.26443437 -0.61563003 7.26443437 -0.61563003 10.43164062 2.03515625 C13.44121447 5.5093259 14.79285712 8.65208278 16.33203125 12.92578125 C16.6135051 13.67337204 16.89497894 14.42096283 17.1849823 15.19120789 C18.07368148 17.5604064 18.94329324 19.93609017 19.8125 22.3125 C20.41476452 23.92820129 21.01826781 25.54344138 21.62304688 27.15820312 C23.09641499 31.10027828 24.55271623 35.04827779 26 39 C28.3663886 33.93693326 30.47586686 28.82113995 32.40234375 23.57421875 C32.81806641 22.44822266 33.23378906 21.32222656 33.66210938 20.16210938 C34.51823139 17.82973409 35.36446706 15.49370801 36.20117188 13.15429688 C36.61818359 12.03474609 37.03519531 10.91519531 37.46484375 9.76171875 C37.832146 8.75069092 38.19944824 7.73966309 38.57788086 6.69799805 C40.25223693 3.52146433 42.03580381 1.9880879 45 0 C47.80034725 -0.4887168 50.12964638 -0.19460025 53 0 C50.52448803 8.88112507 47.3270218 17.45230728 44.06689453 26.06811523 C43.1268478 28.55760655 42.19800317 31.05109435 41.26953125 33.54492188 C33.39278976 54.53286857 33.39278976 54.53286857 29.02783203 57.20922852 C26.58200652 58.16300035 24.60256515 58.14458695 22 58 C18.97883027 52.18841525 16.47775634 46.33682667 14.1796875 40.20703125 C13.83495392 39.29797531 13.49022034 38.38891937 13.13504028 37.45231628 C12.0443966 34.5738586 10.95953938 31.69326247 9.875 28.8125 C8.78200685 25.92153553 7.6878448 23.03101552 6.59353638 20.14054871 C5.9157905 18.34904461 5.23904656 16.55716105 4.56344604 14.7648468 C4.25617584 13.95017441 3.94890564 13.13550201 3.63232422 12.29614258 C3.34854919 11.54193024 3.06477417 10.7877179 2.7723999 10.01065063 C2.13887251 8.36150199 1.46399296 6.72829492 0.77783203 5.1003418 C0 3 0 3 0 0 Z " fill="#C02228" transform="translate(461,626)"/>
<path d="M0 0 C3.3358116 1.79535375 5.26409606 3.60381197 7.375 6.75 C6.715 7.41 6.055 8.07 5.375 8.75 C2.04311091 8.44005683 -0.9226365 7.65964606 -4.125 6.6875 C-8.87538532 5.41507536 -12.9161062 5.3011096 -17.625 6.75 C-17.91670908 9.5517367 -17.91670908 9.5517367 -16.625 12.75 C-13.51931912 15.14370661 -10.0674755 16.8877569 -6.625 18.75 C-0.14639106 22.6185961 5.91284965 26.8256993 9.375 33.75 C9.91860446 38.70482094 9.93937074 42.62125852 7.6875 47.125 C3.20080844 52.21800123 -1.00167495 55.37366431 -7.859375 56.0859375 C-15.93065464 56.17561838 -23.22214657 55.89560806 -29.36328125 50.11328125 C-29.77964844 49.66339844 -30.19601562 49.21351563 -30.625 48.75 C-29.965 47.43 -29.305 46.11 -28.625 44.75 C-25.37390955 45.22576933 -22.43169783 45.81564979 -19.3125 46.875 C-14.80792873 47.94388132 -11.10126183 47.94021991 -6.625 46.75 C-3.90851423 45.2048843 -3.90851423 45.2048843 -2.625 42.75 C-2.15315051 40.25244832 -2.15315051 40.25244832 -3.625 37.75 C-8.77239918 32.7312858 -15.49132762 29.35825331 -21.671875 25.77734375 C-25.68471223 23.02249915 -28.08166351 20.38000946 -29.625 15.75 C-30.02114654 10.50105833 -29.49057317 7.19657906 -26.625 2.75 C-19.29222815 -4.03281396 -8.86100802 -4.25432786 0 0 Z " fill="#C02228" transform="translate(649.625,628.25)"/>
<path d="M0 0 C3.3358116 1.79535375 5.26409606 3.60381197 7.375 6.75 C6.715 7.41 6.055 8.07 5.375 8.75 C2.04311091 8.44005683 -0.9226365 7.65964606 -4.125 6.6875 C-8.87538532 5.41507536 -12.9161062 5.3011096 -17.625 6.75 C-17.91670908 9.5517367 -17.91670908 9.5517367 -16.625 12.75 C-13.51931912 15.14370661 -10.0674755 16.8877569 -6.625 18.75 C-0.14639106 22.6185961 5.91284965 26.8256993 9.375 33.75 C9.91860446 38.70482094 9.93937074 42.62125852 7.6875 47.125 C3.20080844 52.21800123 -1.00167495 55.37366431 -7.859375 56.0859375 C-15.93065464 56.17561838 -23.22214657 55.89560806 -29.36328125 50.11328125 C-29.77964844 49.66339844 -30.19601562 49.21351563 -30.625 48.75 C-29.965 47.43 -29.305 46.11 -28.625 44.75 C-25.37390955 45.22576933 -22.43169783 45.81564979 -19.3125 46.875 C-14.80792873 47.94388132 -11.10126183 47.94021991 -6.625 46.75 C-3.90851423 45.2048843 -3.90851423 45.2048843 -2.625 42.75 C-2.15315051 40.25244832 -2.15315051 40.25244832 -3.625 37.75 C-8.77239918 32.7312858 -15.49132762 29.35825331 -21.671875 25.77734375 C-25.68471223 23.02249915 -28.08166351 20.38000946 -29.625 15.75 C-30.02114654 10.50105833 -29.49057317 7.19657906 -26.625 2.75 C-19.29222815 -4.03281396 -8.86100802 -4.25432786 0 0 Z " fill="#C02228" transform="translate(360.625,628.25)"/>
<path d="M0 0 C-1.625 6.75 -1.625 6.75 -5 9 C-7.16064453 9.30297852 -7.16064453 9.30297852 -9.6328125 9.37890625 C-10.52097656 9.41306641 -11.40914062 9.44722656 -12.32421875 9.48242188 C-13.24847656 9.50884766 -14.17273438 9.53527344 -15.125 9.5625 C-16.96107616 9.62217882 -18.7970309 9.68576588 -20.6328125 9.75390625 C-21.85315186 9.78979858 -21.85315186 9.78979858 -23.09814453 9.82641602 C-25.00965916 9.79635625 -25.00965916 9.79635625 -26 11 C-26.23363881 12.84891946 -26.41303635 14.70488031 -26.5625 16.5625 C-26.706875 18.356875 -26.85125 20.15125 -27 22 C-20.4 22 -13.8 22 -7 22 C-8 27 -8 27 -9.05078125 28.80078125 C-12.21374779 30.74673461 -15.59651792 30.30981293 -19.1875 30.1875 C-19.93708984 30.17396484 -20.68667969 30.16042969 -21.45898438 30.14648438 C-23.30629767 30.11118539 -25.15324066 30.05737917 -27 30 C-26.62888858 32.08787886 -26.22706321 34.17031273 -25.8125 36.25 C-25.59207031 37.41015625 -25.37164063 38.5703125 -25.14453125 39.765625 C-23.7830393 43.6131176 -22.43128821 44.86497623 -19 47 C-14.98727019 48.21692111 -10.91275906 48.33818171 -6.75 48.5625 C-5.63238281 48.62727539 -5.63238281 48.62727539 -4.4921875 48.69335938 C-2.661651 48.79896725 -0.83084824 48.89994201 1 49 C1.31663869 51.92890787 1.44885899 53.43367103 -0.41796875 55.7890625 C-4.34056089 57.6287048 -8.03410249 57.43401238 -12.3125 57.375 C-13.55676758 57.39240234 -13.55676758 57.39240234 -14.82617188 57.41015625 C-21.60613813 57.37804907 -26.33957766 56.11624505 -31.75 51.8125 C-37.84182689 44.19771638 -37.47002839 35.84859344 -37.39111328 26.57202148 C-37.37496202 24.30717422 -37.39105233 22.04409145 -37.41015625 19.77929688 C-37.40817493 18.3281211 -37.40433356 16.8769464 -37.3984375 15.42578125 C-37.39505371 14.12036377 -37.39166992 12.81494629 -37.38818359 11.4699707 C-36.97322059 7.76061898 -36.31539107 5.90030093 -34 3 C-30.95022378 0.87684007 -28.23190619 0.70751264 -24.5703125 0.5859375 C-23.00603516 0.52792969 -23.00603516 0.52792969 -21.41015625 0.46875 C-19.78400391 0.42234375 -19.78400391 0.42234375 -18.125 0.375 C-17.04863281 0.33632813 -15.97226562 0.29765625 -14.86328125 0.2578125 C-9.90599332 0.08666076 -4.96054896 -0.01740543 0 0 Z " fill="#C02228" transform="translate(616,626)"/>
<path d="M0 0 C-1.625 6.75 -1.625 6.75 -5 9 C-7.16064453 9.30297852 -7.16064453 9.30297852 -9.6328125 9.37890625 C-10.52097656 9.41306641 -11.40914063 9.44722656 -12.32421875 9.48242188 C-13.24847656 9.50884766 -14.17273438 9.53527344 -15.125 9.5625 C-16.96107616 9.62217882 -18.7970309 9.68576588 -20.6328125 9.75390625 C-21.85315186 9.78979858 -21.85315186 9.78979858 -23.09814453 9.82641602 C-25.00965916 9.79635625 -25.00965916 9.79635625 -26 11 C-26.23363881 12.84891946 -26.41303635 14.70488031 -26.5625 16.5625 C-26.706875 18.356875 -26.85125 20.15125 -27 22 C-20.4 22 -13.8 22 -7 22 C-8 27 -8 27 -9.05078125 28.80078125 C-12.21374779 30.74673461 -15.59651792 30.30981293 -19.1875 30.1875 C-19.93708984 30.17396484 -20.68667969 30.16042969 -21.45898438 30.14648438 C-23.30629767 30.11118539 -25.15324066 30.05737917 -27 30 C-26.62888858 32.08787886 -26.22706321 34.17031273 -25.8125 36.25 C-25.59207031 37.41015625 -25.37164062 38.5703125 -25.14453125 39.765625 C-23.7830393 43.6131176 -22.43128821 44.86497623 -19 47 C-14.98727019 48.21692111 -10.91275906 48.33818171 -6.75 48.5625 C-5.63238281 48.62727539 -5.63238281 48.62727539 -4.4921875 48.69335938 C-2.661651 48.79896725 -0.83084824 48.89994201 1 49 C1.31663869 51.92890787 1.44885899 53.43367103 -0.41796875 55.7890625 C-4.34056089 57.6287048 -8.03410249 57.43401238 -12.3125 57.375 C-13.55676758 57.39240234 -13.55676758 57.39240234 -14.82617188 57.41015625 C-21.60613813 57.37804907 -26.33957766 56.11624505 -31.75 51.8125 C-37.84182689 44.19771638 -37.47002839 35.84859344 -37.39111328 26.57202148 C-37.37496202 24.30717422 -37.39105233 22.04409145 -37.41015625 19.77929688 C-37.40817493 18.3281211 -37.40433356 16.8769464 -37.3984375 15.42578125 C-37.39505371 14.12036377 -37.39166992 12.81494629 -37.38818359 11.4699707 C-36.97322059 7.76061898 -36.31539107 5.90030093 -34 3 C-30.95022378 0.87684007 -28.23190619 0.70751264 -24.5703125 0.5859375 C-23.00603516 0.52792969 -23.00603516 0.52792969 -21.41015625 0.46875 C-19.78400391 0.42234375 -19.78400391 0.42234375 -18.125 0.375 C-17.04863281 0.33632813 -15.97226562 0.29765625 -14.86328125 0.2578125 C-9.90599332 0.08666076 -4.96054896 -0.01740543 0 0 Z " fill="#C02228" transform="translate(413,626)"/>
<path d="M0 0 C1.875 2.1875 1.875 2.1875 3 4 C1 6 1 6 -2.0625 6.1875 C-4.99834879 6.04769768 -7.67617309 5.7512997 -10.5625 5.3125 C-14.91377448 4.81014573 -17.33397136 5.41711619 -21 8 C-26.5275507 13.40192454 -27.70242939 18.31012441 -28.3125 25.875 C-28.07945369 32.45208478 -26.72855481 38.86660126 -21.875 43.5625 C-17.93738282 46.52827975 -13.86700593 47.21694019 -9 47 C-7.515 46.505 -7.515 46.505 -6 46 C-2.4375 45.75 -2.4375 45.75 1 46 C1.66 46.99 2.32 47.98 3 49 C-3.48111368 54.61696519 -7.66200429 55.42051544 -16.34765625 55.33984375 C-23.26558167 54.69614374 -28.60201783 51.82294397 -33.375 46.8125 C-39.79286516 38.31612169 -41.16829832 29.47855197 -40 19 C-38.13441723 10.98572134 -33.78056426 4.37115488 -27.0390625 -0.3828125 C-18.71908796 -4.80569859 -8.05507497 -4.81667763 0 0 Z " fill="#C02228" transform="translate(573,629)"/>
<path d="M0 0 C1.26096748 0.00033989 1.26096748 0.00033989 2.54740906 0.00068665 C3.45062393 0.0161705 4.35383881 0.03165436 5.28442383 0.04760742 C6.21241287 0.05185226 7.14040192 0.05609711 8.09651184 0.06047058 C11.06178751 0.07726955 14.02638468 0.11492402 16.99145508 0.15307617 C19.00121089 0.16812143 21.01097735 0.18181011 23.02075195 0.1940918 C27.94874794 0.22717709 32.87623646 0.27896784 37.80395508 0.34057617 C37.25250597 4.4212996 36.89064712 5.25388413 33.80395508 8.34057617 C29.18395508 8.34057617 24.56395508 8.34057617 19.80395508 8.34057617 C20.13395508 24.18057617 20.46395508 40.02057617 20.80395508 56.34057617 C14.80395508 56.34057617 14.80395508 56.34057617 11.95947266 54.96655273 C8.68033515 50.97171718 9.17823877 47.34061999 9.31567383 42.32495117 C9.32274857 41.35398499 9.3298233 40.3830188 9.33711243 39.38262939 C9.36507874 36.28449123 9.4278224 33.18816709 9.49145508 30.09057617 C9.51653501 27.98903979 9.53934871 25.88747505 9.55981445 23.78588867 C9.61491301 18.6367533 9.70120215 13.48897217 9.80395508 8.34057617 C4.19395508 8.34057617 -1.41604492 8.34057617 -7.19604492 8.34057617 C-7.19604492 3.34057617 -7.19604492 3.34057617 -5.95829773 1.54936218 C-3.79114679 0.06284349 -2.61381132 -0.02354785 0 0 Z " fill="#C02228" transform="translate(182.196044921875,626.659423828125)"/>
<path d="M0 0 C5.7109375 -0.2265625 5.7109375 -0.2265625 8.3125 1.8125 C11.3945611 5.80776439 11.16151904 9.7319232 11.2109375 14.5546875 C11.23900634 16.07162537 11.26767081 17.58855231 11.296875 19.10546875 C11.33811004 21.4907195 11.37500847 23.87576629 11.40136719 26.26123047 C11.42904803 28.5678081 11.47491486 30.87346654 11.5234375 33.1796875 C11.52669037 33.88817841 11.52994324 34.59666931 11.53329468 35.32662964 C11.64135797 39.70125516 12.31554975 42.51725012 15 46 C18.80040301 48.13977786 22.50679578 48.36404823 26.8125 48.625 C27.97394531 48.69976563 29.13539063 48.77453125 30.33203125 48.8515625 C31.21246094 48.90054688 32.09289062 48.94953125 33 49 C31.74020785 52.88435913 30.67232276 55.07047448 27 57 C23.7578125 57.3984375 23.7578125 57.3984375 20.125 57.375 C18.93132812 57.38273438 17.73765625 57.39046875 16.5078125 57.3984375 C11.50598936 56.83030169 8.20722253 55.27429045 4.75 51.625 C-1.89012259 41.66481612 -0.12371392 28.43301231 -0.0625 16.9375 C-0.0574758 15.29231907 -0.05291452 13.64713665 -0.04882812 12.00195312 C-0.03789342 8.00126502 -0.0206793 4.00064912 0 0 Z " fill="#C02228" transform="translate(278,626)"/>
<path d="M0 0 C0.07610425 7.0291449 0.12862273 14.05818342 0.16479492 21.08764648 C0.17987543 23.4786374 0.20034277 25.86960068 0.22631836 28.26049805 C0.26273306 31.69847435 0.27973399 35.13608469 0.29296875 38.57421875 C0.30845261 39.64210129 0.32393646 40.70998383 0.33988953 41.81022644 C0.34200565 51.1552462 0.34200565 51.1552462 -3 55 C-5.70879335 56.35439668 -8.00933268 56.06501451 -11 56 C-11.07619033 49.13158286 -11.12865885 42.2632751 -11.16479492 35.39453125 C-11.17986261 33.05887784 -11.20032049 30.72325263 -11.22631836 28.38769531 C-11.26278958 25.02662181 -11.2797469 21.66592308 -11.29296875 18.3046875 C-11.30845261 17.26384003 -11.32393646 16.22299255 -11.33988953 15.15060425 C-11.34114893 9.70061358 -11.17998489 5.662947 -8 1 C-5.29120665 -0.35439668 -2.99066732 -0.06501451 0 0 Z " fill="#C02228" transform="translate(528,627)"/>
<path d="M0 0 C0.07610425 7.0291449 0.12862273 14.05818342 0.16479492 21.08764648 C0.17987543 23.4786374 0.20034277 25.86960068 0.22631836 28.26049805 C0.26273306 31.69847435 0.27973399 35.13608469 0.29296875 38.57421875 C0.30845261 39.64210129 0.32393646 40.70998383 0.33988953 41.81022644 C0.34200565 51.1552462 0.34200565 51.1552462 -3 55 C-5.70879335 56.35439668 -8.00933268 56.06501451 -11 56 C-11.07619033 49.13158286 -11.12865885 42.2632751 -11.16479492 35.39453125 C-11.17986261 33.05887784 -11.20032049 30.72325263 -11.22631836 28.38769531 C-11.26278958 25.02662181 -11.2797469 21.66592308 -11.29296875 18.3046875 C-11.30845261 17.26384003 -11.32393646 16.22299255 -11.33988953 15.15060425 C-11.34114893 9.70061358 -11.17998489 5.662947 -8 1 C-5.29120665 -0.35439668 -2.99066732 -0.06501451 0 0 Z " fill="#C02228" transform="translate(162,627)"/>
<path d="M0 0 C0.07610425 7.0291449 0.12862273 14.05818342 0.16479492 21.08764648 C0.17987543 23.4786374 0.20034277 25.86960068 0.22631836 28.26049805 C0.26273306 31.69847435 0.27973399 35.13608469 0.29296875 38.57421875 C0.30845261 39.64210129 0.32393646 40.70998383 0.33988953 41.81022644 C0.34200565 51.1552462 0.34200565 51.1552462 -3 55 C-5.70879335 56.35439668 -8.00933268 56.06501451 -11 56 C-11.07619033 49.13158286 -11.12865885 42.2632751 -11.16479492 35.39453125 C-11.17986261 33.05887784 -11.20032049 30.72325263 -11.22631836 28.38769531 C-11.26278958 25.02662181 -11.2797469 21.66592308 -11.29296875 18.3046875 C-11.30845261 17.26384003 -11.32393646 16.22299255 -11.33988953 15.15060425 C-11.34114893 9.70061358 -11.17998489 5.662947 -8 1 C-5.29120665 -0.35439668 -2.99066732 -0.06501451 0 0 Z " fill="#C02228" transform="translate(92,627)"/>
<path d="M0 0 C0.82242187 0.01353516 1.64484375 0.02707031 2.4921875 0.04101562 C4.49508221 0.07594984 6.49763356 0.12973943 8.5 0.1875 C6.24991015 3.72830074 4.18602296 6.77132565 0.9375 9.4375 C-3.57935817 13.22281428 -7.87537738 17.22354209 -12.1796875 21.24609375 C-14.5 23.1875 -14.5 23.1875 -16.5 23.1875 C-16.5 23.8475 -16.5 24.5075 -16.5 25.1875 C-18.0390625 26.5546875 -18.0390625 26.5546875 -20.125 28.0625 C-20.84945313 28.5884375 -21.57390625 29.114375 -22.3203125 29.65625 C-25.0168902 31.55062 -27.73692634 33.39150212 -30.5 35.1875 C-30.994493 23.33798245 -30.22301066 15.62588699 -22.21875 6.62109375 C-20.5 5.1875 -20.5 5.1875 -17.5 5.1875 C-17.5 4.5275 -17.5 3.8675 -17.5 3.1875 C-11.40237981 0.52328751 -6.61470109 -0.21007601 0 0 Z " fill="#1F2857" transform="translate(323.5,190.8125)"/>
<path d="M0 0 C-0.33 0.99 -0.66 1.98 -1 3 C-5.95 3.33 -10.9 3.66 -16 4 C-13.45718331 1.45718331 -11.47356329 1.16836595 -8 0.3125 C-6.9275 0.04050781 -5.855 -0.23148437 -4.75 -0.51171875 C-2 -1 -2 -1 0 0 Z " fill="#862423" transform="translate(189,287)"/>
</svg>
